<svg id="Layer_1" data-name="Layer 1" xmlns="http://www.w3.org/2000/svg" viewBox="0 0 934.43 934.43"><defs><style>.cls-1{fill:#9f34c0;stroke:#9f34c0;stroke-miterlimit:10;stroke-width:100px;}</style></defs><path class="cls-1" d="M911.12,665H775.31c-.41,0-.81,0-1.22,0V774.09H353A103.08,103.08,0,0,1,249.91,671V249.91H671A103.08,103.08,0,0,1,774.09,353v6.1c.41,0,.81,0,1.22,0h136a17.89,17.89,0,0,0,17.86-17.84V206.26A111.47,111.47,0,0,0,817.74,94.79H94.79v723A111.47,111.47,0,0,0,206.26,929.21h723V683A18.12,18.12,0,0,0,911.12,665Z" transform="translate(-44.79 -44.79)"/></svg>